<?xml version="1.0" encoding="UTF-8" standalone="no"?>
<!-- Created with Inkscape (http://www.inkscape.org/) -->

<svg
   version="1.1"
   width="96"
   height="96"
   id="svg2"
   inkscape:version="1.2.2 (b0a8486541, 2022-12-01)"
   sodipodi:docname="icon.svg"
   xmlns:inkscape="http://www.inkscape.org/namespaces/inkscape"
   xmlns:sodipodi="http://sodipodi.sourceforge.net/DTD/sodipodi-0.dtd"
   xmlns:xlink="http://www.w3.org/1999/xlink"
   xmlns="http://www.w3.org/2000/svg"
   xmlns:svg="http://www.w3.org/2000/svg"
   xmlns:rdf="http://www.w3.org/1999/02/22-rdf-syntax-ns#"
   xmlns:cc="http://creativecommons.org/ns#"
   xmlns:dc="http://purl.org/dc/elements/1.1/">
  <sodipodi:namedview
     pagecolor="#ffffff"
     bordercolor="#666666"
     borderopacity="1"
     objecttolerance="10"
     gridtolerance="10"
     guidetolerance="10"
     inkscape:pageopacity="0"
     inkscape:pageshadow="2"
     inkscape:window-width="1600"
     inkscape:window-height="843"
     id="namedview9"
     showgrid="false"
     inkscape:zoom="2.9713327"
     inkscape:cx="78.079443"
     inkscape:cy="52.501695"
     inkscape:window-x="0"
     inkscape:window-y="0"
     inkscape:window-maximized="1"
     inkscape:current-layer="svg2"
     inkscape:showpageshadow="2"
     inkscape:pagecheckerboard="0"
     inkscape:deskcolor="#d1d1d1" />
  <defs
     id="defs4">
    <linearGradient
       inkscape:collect="always"
       id="linearGradient1525">
      <stop
         style="stop-color:#ffffff;stop-opacity:1;"
         offset="0"
         id="stop1521" />
      <stop
         style="stop-color:#ffffff;stop-opacity:0;"
         offset="1"
         id="stop1523" />
    </linearGradient>
    <linearGradient
       id="linearGradient3859">
      <stop
         style="stop-color:#f60007;stop-opacity:0;"
         offset="0"
         id="stop3861" />
      <stop
         id="stop3867"
         offset="0.64554304"
         style="stop-color:#ff0000;stop-opacity:0.49803922;" />
      <stop
         style="stop-color:#ff0000;stop-opacity:1;"
         offset="0.87873006"
         id="stop3761" />
      <stop
         style="stop-color:#ff0000;stop-opacity:1;"
         offset="1"
         id="stop3863" />
    </linearGradient>
    <linearGradient
       inkscape:collect="always"
       xlink:href="#linearGradient1525"
       id="linearGradient1527"
       x1="47.758545"
       y1="22.662861"
       x2="47.856075"
       y2="94.65976"
       gradientUnits="userSpaceOnUse" />
  </defs>
  <metadata
     id="metadata7">
    <rdf:RDF>
      <cc:Work
         rdf:about="">
        <dc:format>image/svg+xml</dc:format>
        <dc:type
           rdf:resource="http://purl.org/dc/dcmitype/StillImage" />
        <dc:title />
      </cc:Work>
    </rdf:RDF>
  </metadata>
  <path
     style="color:#000000;fill:url(#linearGradient1527);stroke-width:1;stroke-linecap:round;stroke-linejoin:round;-inkscape-stroke:none;fill-opacity:1"
     d="m 115.1127,84.027694 -14.26323,0.002 C 87.643288,84.030768 76.961774,73.353096 76.960647,60.146929 V 48.259565 h 0.01007 v -5.468311 c 0,-11.556126 -9.256264,-20.810391 -20.812393,-20.810391 H 38.206116 c -11.556129,0 -20.812394,9.254265 -20.812394,20.810391 v 5.462305 h 0.03803 l 0.002,11.887364 C 17.434901,73.347091 6.7551439,84.02671 -6.4510316,84.027734 l -15.4481694,0.002 v 9.279302 c 0,14.687234 0.228461,26.510884 0.512404,26.510884 H 114.60029 c 0.28394,0 0.51241,-11.82365 0.51241,-26.510884 z"
     id="path1515" />
  <path
     id="rect3826-0"
     style="color:#000000;fill:#000000;stroke-linecap:round;stroke-linejoin:round;-inkscape-stroke:none"
     d="M 39.0625 21.363281 C 26.175993 21.363281 15.753906 31.783415 15.753906 44.669922 L 15.753906 56.269531 L 15.792969 56.269531 L 15.792969 61.599609 C 15.793895 72.876013 6.7607787 81.907277 -4.515625 81.908203 L -22.033203 81.910156 C -33.309607 81.911122 -42.34087 72.881872 -42.341797 61.605469 L -42.34375 50.005859 L -45.34375 50.005859 L -45.341797 61.605469 C -45.340697 74.491975 -34.917757 84.911214 -22.03125 84.910156 L -4.5136719 84.908203 C 8.3728352 84.907103 18.794028 74.486115 18.792969 61.599609 L 18.791016 50 L 18.753906 50 L 18.753906 44.669922 C 18.753906 33.393518 27.786096 24.363281 39.0625 24.363281 L 56.580078 24.363281 C 67.856482 24.363281 76.888672 33.393518 76.888672 44.669922 L 76.888672 50.005859 L 76.878906 50.005859 L 76.878906 61.605469 C 76.880006 74.491975 87.302942 84.911214 100.18945 84.910156 L 117.70703 84.908203 C 130.59354 84.907103 141.01473 74.486115 141.01367 61.599609 L 141.01367 50 L 138.01367 50 L 138.01367 61.599609 C 138.0146 72.876013 128.98343 81.907277 117.70703 81.908203 L 100.18945 81.910156 C 88.913048 81.911122 79.879833 72.881872 79.878906 61.605469 L 79.878906 56.269531 L 79.888672 56.269531 L 79.888672 44.669922 C 79.888672 31.783415 69.466585 21.363281 56.580078 21.363281 L 39.0625 21.363281 z " />
  <rect
     style="fill:#000000;fill-opacity:1;stroke:none;stroke-width:3;stroke-linecap:round;stroke-linejoin:round;stroke-miterlimit:10;stroke-dasharray:none"
     id="rect1055"
     width="4.2580333"
     height="28.267277"
     x="46.352989"
     y="37.125553"
     rx="0"
     ry="0" />
  <rect
     style="fill:#000000;fill-opacity:1;stroke:none;stroke-width:3;stroke-linecap:round;stroke-linejoin:round;stroke-miterlimit:10;stroke-dasharray:none"
     id="rect1055-3"
     width="4.2580333"
     height="28.267277"
     x="49.400051"
     y="-62.029396"
     rx="0"
     ry="0"
     transform="rotate(89.48344)" />
</svg>
